<svg xmlns="http://www.w3.org/2000/svg" viewBox="0 0 332.68 136.33"><defs><style>.cls-1{fill:none;stroke:#cb0000;stroke-width:4.83px;}</style></defs><title>Logo - Dark</title><g id="Layer_2" data-name="Layer 2"><g id="Layer_1-2" data-name="Layer 1"><circle class="cls-1" cx="157.63" cy="68.16" r="65.75"/><path d="M3.47,89.11H19.4v3.19H0V58.13H3.47Z"/><path d="M49.61,92.29H46.13V77.57L33.35,58.13h4.34L47.87,74.24,58.05,58.13H62.4L49.61,77.57Z"/><path d="M265.12,72.94l9.55-13.66H279L267.44,75.5l12.55,18H275.4L265,78,254.51,93.45h-4.35l12.5-18L251.13,59.28h4.68Z"/><path d="M303.63,93.45h-4.05l14.86-34.17h3.38l14.86,34.17h-4.06l-3.76-9H307.4Zm5.07-12.16h14.82l-7.38-18Z"/></g></g></svg>