<?xml version="1.0" encoding="utf-8"?>
<!-- Generator: Adobe Illustrator 21.1.0, SVG Export Plug-In . SVG Version: 6.00 Build 0)  -->
<svg version="1.1" id="Layer_1" xmlns="http://www.w3.org/2000/svg" xmlns:xlink="http://www.w3.org/1999/xlink" x="0px" y="0px"
	 viewBox="0 0 337.7 141.5" style="enable-background:new 0 0 337.7 141.5;" xml:space="preserve">
<style type="text/css">
	.st0{fill:none;stroke:#CB0000;stroke-width:10;}
</style>
<title>Logo - Dark</title>
<circle class="st0" cx="159.6" cy="70.8" r="65.8"/>
<g>
	<polygon points="0,96.9 0,58.7 7.5,58.7 7.5,89.7 23.4,89.7 23.4,96.9 	"/>
</g>
<g>
	<polygon points="46.1,96.9 46.1,80.8 31.6,58.7 40.8,58.7 49.9,73.1 58.9,58.7 68.1,58.7 53.6,80.8 53.6,96.9 	"/>
</g>
<g>
	<polygon points="276.3,98.1 267,84.2 257.6,98 248.3,98 262.2,78.1 249.2,59.9 258.9,59.9 267.1,72 275.6,59.9 284.9,59.9 
		271.9,78.1 285.8,98.1 	"/>
</g>
<g>
	<path d="M329.3,98l-3.8-9h-14.8l-3.8,9h-8.4l16.6-38.2h6L337.7,98H329.3z M322.5,81.9l-4.4-10.7l-4.4,10.7H322.5z"/>
</g>
</svg>
