<svg id="Layer_1" data-name="Layer 1" xmlns="http://www.w3.org/2000/svg" xmlns:xlink="http://www.w3.org/1999/xlink" viewBox="0 0 1000 1000"><defs><style>.cls-1{fill:none;}.cls-2{fill:#00b2eb;}.cls-3{clip-path:url(#clip-path);}</style><clipPath id="clip-path"><rect class="cls-1" x="1020" width="1000" height="1000"/></clipPath></defs><title>bassment</title><path class="cls-2" d="M432.75,320H312V440H432.75a60,60,0,0,0,0-120Z"/><path class="cls-2" d="M432.75,560H312V680H432.75a60,60,0,0,0,0-120Z"/><path class="cls-2" d="M0,0V1000H1000V0ZM672,200H792V621.09C776,610.88,753.86,605,732,605a120.36,120.36,0,0,0-60,16.09ZM612.75,620a180,180,0,0,1-180,180H192V200H432.75A180,180,0,0,1,566.88,500,179.3,179.3,0,0,1,612.75,620Zm120,180a75,75,0,1,1,75-75A75,75,0,0,1,732.75,800Z"/><g class="cls-3"><image width="1004" height="650" transform="translate(839 59.11) scale(1.36)" xlink:href="../Downloads/13584944_1013771152069750_4963612543613284708_o.jpg"/></g></svg>