<?xml version="1.0" encoding="utf-8"?>
<!-- Generator: Adobe Illustrator 21.1.0, SVG Export Plug-In . SVG Version: 6.00 Build 0)  -->
<svg version="1.1" id="Calque_1" xmlns="http://www.w3.org/2000/svg" xmlns:xlink="http://www.w3.org/1999/xlink" x="0px" y="0px"
	 viewBox="0 0 1000 1000" style="enable-background:new 0 0 1000 1000;" xml:space="preserve">
<style type="text/css">
	.st0{fill:#010202;}
	.st1{clip-path:url(#SVGID_2_);fill:url(#SVGID_3_);}
	.st2{clip-path:url(#SVGID_5_);fill:url(#SVGID_6_);}
</style>
<rect class="st0" width="1000" height="1000"/>
<g>
	<g>
		<defs>
			<path id="SVGID_1_" d="M146.3,295c67.3,0,161.9,15.4,161.9,138.6c0,118.4-93,138.6-161.9,138.6H100V295H146.3z M261.5,433.6
				c0-110.9-115.2-93.4-115.2-93.4V527C146.3,527,261.5,542.9,261.5,433.6z M460.3,294.6v196.8c0,80.8-81.2,80.8-81.2,80.8h-34.8
				v-46.3h34.8c34.8,0,34.8-34.4,34.8-34.4V337h-49.9v-42.4H460.3z M647.2,453.8H507.8v-42h139.4V453.8z M843.6,572.2l-72.1-115.6
				H745v115.6h-46.3V410.6h43.9l-43.9-69.3V295h92.3c0,0,92.6,0,92.6,80.8c0,49.1-34,68.5-61,76l75.2,120.4H843.6z M796.8,410.2
				c12.3-1.2,40.4-7.1,40.4-34.4c0-34.4-46.3-34.4-46.3-34.4h-37.2L796.8,410.2z"/>
		</defs>
		<clipPath id="SVGID_2_">
			<use xlink:href="#SVGID_1_"  style="overflow:visible;"/>
		</clipPath>
		<linearGradient id="SVGID_3_" gradientUnits="userSpaceOnUse" x1="50.7596" y1="432.8841" x2="954.2258" y2="432.8841">
			<stop  offset="0" style="stop-color:#525252"/>
			<stop  offset="1" style="stop-color:#807F83"/>
		</linearGradient>
		<rect x="50.8" y="289.1" class="st1" width="903.5" height="287.6"/>
	</g>
	<g>
		<defs>
			<path id="SVGID_4_" d="M110.4,634.8v61.7h36.8v7.8h-46v-69.5H110.4z M215.1,668.9c1-3.2,2.6-6,4.7-8.4c2.1-2.4,4.6-4.2,7.7-5.6
				c3-1.4,6.6-2,10.5-2c4,0,7.5,0.7,10.6,2c3,1.4,5.6,3.2,7.6,5.6c2.1,2.4,3.6,5.2,4.7,8.4c1,3.2,1.6,6.7,1.6,10.4
				c0,3.7-0.5,7.1-1.6,10.3c-1,3.2-2.6,6-4.7,8.3c-2.1,2.4-4.6,4.2-7.6,5.5c-3,1.3-6.5,2-10.6,2c-4,0-7.5-0.7-10.5-2
				c-3.1-1.3-5.6-3.2-7.7-5.5c-2.1-2.4-3.6-5.1-4.7-8.3c-1-3.2-1.6-6.6-1.6-10.3C213.5,675.5,214,672.1,215.1,668.9z M223.5,687.3
				c0.8,2.4,1.9,4.3,3.4,5.9c1.4,1.6,3.1,2.8,5,3.6c1.9,0.8,3.9,1.3,6.1,1.3c2.1,0,4.2-0.4,6.1-1.3c1.9-0.8,3.6-2.1,5-3.6
				c1.4-1.6,2.5-3.6,3.4-5.9c0.8-2.4,1.2-5.1,1.2-8.1c0-3-0.4-5.8-1.2-8.1c-0.8-2.4-1.9-4.4-3.4-6c-1.4-1.6-3.1-2.9-5-3.7
				c-1.9-0.8-3.9-1.3-6.1-1.3c-2.1,0-4.2,0.4-6.1,1.3c-1.9,0.8-3.6,2.1-5,3.7c-1.4,1.6-2.5,3.6-3.4,6c-0.8,2.4-1.2,5.1-1.2,8.1
				C222.3,682.3,222.7,685,223.5,687.3z M364.4,662.8c-2.1-1.8-4.9-2.6-8.4-2.6c-3,0-5.5,0.6-7.5,1.7c-2,1.1-3.6,2.6-4.8,4.4
				c-1.2,1.8-2.1,3.9-2.6,6.3c-0.5,2.4-0.8,4.8-0.8,7.3c0,2.3,0.3,4.6,0.8,6.8c0.6,2.2,1.4,4.2,2.6,5.9c1.2,1.7,2.7,3.1,4.6,4.1
				c1.9,1,4.1,1.6,6.7,1.6c4.1,0,7.3-1.1,9.6-3.2c2.3-2.1,3.7-5.2,4.2-9h8.5c-0.9,6.2-3.2,11-7,14.4c-3.7,3.4-8.8,5.1-15.2,5.1
				c-3.8,0-7.2-0.6-10.2-1.8c-3-1.2-5.4-3-7.4-5.3c-2-2.3-3.5-5-4.5-8.1c-1-3.1-1.5-6.6-1.5-10.4c0-3.8,0.5-7.3,1.5-10.6
				c1-3.3,2.4-6.1,4.4-8.6c2-2.4,4.5-4.3,7.4-5.7c3-1.4,6.5-2.1,10.4-2.1c2.9,0,5.5,0.3,8,1c2.5,0.7,4.7,1.7,6.6,3.2
				c1.9,1.4,3.5,3.2,4.7,5.4c1.2,2.2,2,4.8,2.3,7.7h-8.6C367.9,667,366.5,664.5,364.4,662.8z M493.5,704.1c-1.4,0.8-3.4,1.3-5.9,1.3
				c-2.1,0-3.8-0.6-5.1-1.8c-1.3-1.2-1.9-3.2-1.9-5.9c-2.3,2.7-4.9,4.7-7.9,5.9c-3,1.2-6.3,1.8-9.8,1.8c-2.3,0-4.4-0.3-6.5-0.8
				c-2-0.5-3.8-1.3-5.3-2.4c-1.5-1.1-2.7-2.5-3.6-4.3c-0.9-1.8-1.3-3.9-1.3-6.5c0-2.9,0.5-5.2,1.5-7c1-1.8,2.3-3.3,3.8-4.4
				c1.6-1.1,3.4-2,5.4-2.6c2-0.6,4.1-1.1,6.3-1.5c2.3-0.5,4.4-0.8,6.5-1c2-0.2,3.8-0.6,5.4-1c1.6-0.4,2.8-1,3.7-1.8
				c0.9-0.8,1.4-2,1.4-3.6c0-1.8-0.3-3.3-1-4.4c-0.7-1.1-1.6-1.9-2.6-2.5c-1.1-0.6-2.3-1-3.6-1.2c-1.3-0.2-2.6-0.3-3.9-0.3
				c-3.5,0-6.4,0.7-8.8,2c-2.3,1.3-3.6,3.8-3.8,7.5h-8.3c0.1-3.1,0.8-5.7,1.9-7.9c1.2-2.1,2.7-3.9,4.7-5.2c1.9-1.3,4.2-2.3,6.7-2.9
				c2.5-0.6,5.2-0.9,8-0.9c2.3,0,4.5,0.2,6.8,0.5c2.2,0.3,4.3,1,6.1,2c1.8,1,3.3,2.4,4.4,4.2c1.1,1.8,1.7,4.2,1.7,7.1v25.8
				c0,1.9,0.1,3.4,0.3,4.3c0.2,0.9,1,1.4,2.3,1.4c0.7,0,1.6-0.1,2.5-0.4V704.1z M480,678.3c-1,0.8-2.4,1.3-4.1,1.7
				c-1.7,0.4-3.5,0.6-5.3,0.9c-1.8,0.2-3.7,0.5-5.6,0.8c-1.9,0.3-3.6,0.8-5.1,1.4c-1.5,0.6-2.7,1.6-3.6,2.8
				c-0.9,1.2-1.4,2.8-1.4,4.9c0,1.4,0.3,2.5,0.8,3.4c0.6,0.9,1.3,1.7,2.1,2.3c0.9,0.6,1.9,1,3.1,1.3c1.2,0.3,2.4,0.4,3.7,0.4
				c2.7,0,5.1-0.4,7-1.1c1.9-0.7,3.5-1.7,4.8-2.8c1.2-1.1,2.1-2.4,2.7-3.7c0.6-1.3,0.9-2.6,0.9-3.7V678.3z M584.9,654v7.3h-10v31.2
				c0,1,0.1,1.8,0.2,2.3c0.2,0.6,0.5,1,0.9,1.4c0.5,0.3,1.1,0.5,1.9,0.6c0.8,0.1,1.9,0.1,3.2,0.1h3.8v7.3h-6.3c-2.1,0-4-0.1-5.5-0.4
				c-1.5-0.3-2.8-0.8-3.7-1.6c-0.9-0.8-1.6-1.9-2.1-3.3c-0.5-1.4-0.7-3.3-0.7-5.6v-32h-8.6V654h8.6v-15.1h8.3V654H584.9z M656.8,645
				v-10.1h8.3V645H656.8z M665.1,654v50.3h-8.3V654H665.1z M739.1,668.9c1-3.2,2.6-6,4.7-8.4c2.1-2.4,4.6-4.2,7.7-5.6
				c3-1.4,6.6-2,10.5-2c4,0,7.5,0.7,10.6,2c3,1.4,5.6,3.2,7.6,5.6c2.1,2.4,3.6,5.2,4.7,8.4c1,3.2,1.6,6.7,1.6,10.4
				c0,3.7-0.5,7.1-1.6,10.3c-1,3.2-2.6,6-4.7,8.3c-2.1,2.4-4.6,4.2-7.6,5.5c-3,1.3-6.5,2-10.6,2c-4,0-7.5-0.7-10.5-2
				c-3.1-1.3-5.6-3.2-7.7-5.5c-2.1-2.4-3.6-5.1-4.7-8.3c-1-3.2-1.6-6.6-1.6-10.3C737.5,675.5,738,672.1,739.1,668.9z M747.5,687.3
				c0.8,2.4,1.9,4.3,3.4,5.9c1.4,1.6,3.1,2.8,5,3.6c1.9,0.8,3.9,1.3,6.1,1.3c2.1,0,4.2-0.4,6.1-1.3c1.9-0.8,3.6-2.1,5-3.6
				c1.4-1.6,2.5-3.6,3.4-5.9c0.8-2.4,1.2-5.1,1.2-8.1c0-3-0.4-5.8-1.2-8.1c-0.8-2.4-1.9-4.4-3.4-6c-1.4-1.6-3.1-2.9-5-3.7
				c-1.9-0.8-3.9-1.3-6.1-1.3c-2.1,0-4.2,0.4-6.1,1.3c-1.9,0.8-3.6,2.1-5,3.7c-1.4,1.6-2.5,3.6-3.4,6c-0.8,2.4-1.2,5.1-1.2,8.1
				C746.3,682.3,746.7,685,747.5,687.3z M866.1,654v8h0.2c3.4-6.1,8.9-9.1,16.3-9.1c3.3,0,6.1,0.5,8.3,1.4c2.2,0.9,4,2.2,5.4,3.8
				c1.4,1.6,2.3,3.6,2.9,5.8c0.5,2.2,0.8,4.7,0.8,7.4v33.1h-8.3v-34.1c0-3.1-0.9-5.6-2.7-7.4c-1.8-1.8-4.3-2.7-7.5-2.7
				c-2.5,0-4.7,0.4-6.6,1.2c-1.8,0.8-3.4,1.9-4.6,3.3c-1.2,1.4-2.2,3.1-2.8,5c-0.6,1.9-0.9,4-0.9,6.3v28.4h-8.3V654H866.1z"/>
		</defs>
		<clipPath id="SVGID_5_">
			<use xlink:href="#SVGID_4_"  style="overflow:visible;"/>
		</clipPath>
		<linearGradient id="SVGID_6_" gradientUnits="userSpaceOnUse" x1="93.613" y1="668.5613" x2="915.6996" y2="668.5613">
			<stop  offset="0" style="stop-color:#EDEBEB"/>
			<stop  offset="1" style="stop-color:#BCB9B9"/>
		</linearGradient>
		<rect x="93.6" y="622" class="st2" width="822.1" height="93.1"/>
	</g>
</g>
</svg>
