<svg id="Layer_1" data-name="Layer 1" xmlns="http://www.w3.org/2000/svg" viewBox="0 0 1000 1000"><title>hypersquad</title><path d="M179.17,536.53H162.69V491.28H116.41v45.25H100V436.14h16.41V477.2h46.28V436.14h16.48Z"/><path d="M192.35,460.59h17.58l15.45,43.05a81.73,81.73,0,0,1,4.67,17.3h.55a72.21,72.21,0,0,1,2.27-9.17q1.65-5.39,17.44-51.19h17.44l-32.48,86q-8.86,23.69-29.53,23.69a46.47,46.47,0,0,1-10.44-1.17V556.37a37.81,37.81,0,0,0,8.31.82q11.67,0,16.41-13.53l2.82-7.14Z"/><path d="M317.8,537.9q-14.42,0-22.38-10.37h-1q1,9.61,1,11.67v31.1H279.28V460.59h13q.55,2.13,2.27,10.16h.82q7.55-11.54,22.66-11.54,14.21,0,22.14,10.3t7.93,28.91q0,18.61-8.07,29T317.8,537.9Zm-3.91-65.51q-9.61,0-14,5.63t-4.43,18v2.4q0,13.87,4.39,20.08t14.35,6.21a14.57,14.57,0,0,0,12.91-6.87q4.53-6.87,4.53-19.57T327.1,479Q322.61,472.4,313.89,472.4Z"/><path d="M400.06,537.9q-17.72,0-27.71-10.33t-10-28.46q0-18.61,9.27-29.25t25.47-10.64q15,0,23.76,9.13t8.72,25.13v8.72H379q.34,11.06,6,17t15.86,5.94a58.53,58.53,0,0,0,12.53-1.27,65.7,65.7,0,0,0,12.46-4.22v13.11a49.53,49.53,0,0,1-11.95,4A73.29,73.29,0,0,1,400.06,537.9Zm-3-66.47q-7.69,0-12.33,4.88t-5.53,14.21h34.47q-.14-9.41-4.53-14.25T397.11,471.44Z"/><path d="M486.44,459.21a38.89,38.89,0,0,1,8,.69l-1.58,15a30.5,30.5,0,0,0-7.14-.82q-9.68,0-15.69,6.32t-6,16.41v39.69H447.92V460.59h12.63L462.68,474h.82a30.09,30.09,0,0,1,9.85-10.78A23.42,23.42,0,0,1,486.44,459.21Z"/><path d="M559.57,514.9q0,11.12-8.1,17.06t-23.21,5.94q-15.18,0-24.38-4.6V519.36q13.39,6.18,24.92,6.18,14.9,0,14.9-9a7.13,7.13,0,0,0-1.65-4.81,19.52,19.52,0,0,0-5.42-4,93.58,93.58,0,0,0-10.51-4.67Q513,498,508.38,492.93t-4.63-13.18a17.32,17.32,0,0,1,7.86-15.14q7.86-5.39,21.39-5.39a60.59,60.59,0,0,1,25.34,5.42l-5.22,12.15q-12.29-5.08-20.67-5.08-12.77,0-12.77,7.28a7.32,7.32,0,0,0,3.33,6q3.33,2.47,14.52,6.8,9.41,3.64,13.66,6.66a19.92,19.92,0,0,1,6.32,7A20.17,20.17,0,0,1,559.57,514.9Z"/><path d="M602.48,537.9q-14.08,0-22-10.33t-8-28.87q0-18.54,8.1-29t22.32-10.47a29.94,29.94,0,0,1,12.81,2.64,26.84,26.84,0,0,1,10.13,8.69h.55l1.79-10h13.39V570.31h-16.2v-32.2q0-3,.27-6.39t.48-5.15h-.89Q618.07,537.9,602.48,537.9Zm4.6-12.91q10.16,0,14.59-5.87t4.43-17.75v-2.54q0-14.08-4.57-20.26t-14.73-6.18q-8.65,0-13.18,6.87T589.09,499Q589.09,525,607.08,525Z"/><path d="M718.18,536.53l-2.27-10h-.82a22.9,22.9,0,0,1-9.58,8.31,32,32,0,0,1-14.18,3q-13.8,0-20.6-6.87t-6.8-20.81V460.59h16.27v46.83q0,8.72,3.57,13.08T695,524.86q10.16,0,14.93-6.08t4.77-20.36V460.59h16.2v75.94Z"/><path d="M801.4,536.53,798.17,526h-.55q-5.49,6.94-11.05,9.44t-14.28,2.51q-11.19,0-17.47-6t-6.28-17.1q0-11.74,8.72-17.72t26.57-6.52l13.11-.41v-4.05q0-7.28-3.4-10.88T783,471.57a36.45,36.45,0,0,0-11.19,1.72,84.57,84.57,0,0,0-10.3,4.05l-5.22-11.54a56.18,56.18,0,0,1,13.53-4.91,62.25,62.25,0,0,1,13.87-1.68q14.49,0,21.87,6.32t7.38,19.84v51.15Zm-24-11q8.79,0,14.11-4.91t5.32-13.77v-6.59l-9.75.41q-11.4.41-16.58,3.81t-5.18,10.4q0,5.08,3,7.86T777.37,525.54Z"/><path d="M861.07,537.9q-14.21,0-22.18-10.3t-8-28.91q0-18.68,8.07-29.08t22.35-10.4q15,0,22.8,11.05H885a96.65,96.65,0,0,1-1.17-12.91V429.69H900V536.53H887.37l-2.82-10h-.76Q876,537.9,861.07,537.9Zm4.33-13q10,0,14.49-5.6t4.67-18.16v-2.27q0-14.35-4.67-20.39t-14.63-6a14.84,14.84,0,0,0-13.11,6.9q-4.6,6.9-4.6,19.67T852,518.23Q856.47,524.86,865.39,524.86Z"/></svg>