<svg viewBox="0 0 100 100" xmlns="http://www.w3.org/2000/svg"><path d="m94.48 0h-89a5.52 5.52 0 0 0 -5.48 5.52v89a5.52 5.52 0 0 0 5.52 5.48h47.9v-38.67h-13v-15.14h13v-11.14c0-12.91 7.89-19.95 19.41-19.95a104.57 104.57 0 0 1 11.64.6v13.5h-7.94c-6.27 0-7.49 3-7.49 7.35v9.64h14.96l-2 15.14h-13v38.67h25.48a5.52 5.52 0 0 0 5.52-5.52v-89a5.52 5.52 0 0 0 -5.52-5.48z" fill="#4267b2"/><path d="m69 100v-38.67h13l2-15.14h-15v-9.64c0-4.37 1.22-7.35 7.49-7.35h7.94v-13.5a104.57 104.57 0 0 0 -11.64-.6c-11.52 0-19.41 7-19.41 19.95v11.14h-13v15.14h13v38.67z" fill="#fff"/></svg>