<svg enable-background="new 0 0 337.7 141.5" viewBox="0 0 337.7 141.5" xmlns="http://www.w3.org/2000/svg"><circle cx="159.6" cy="70.8" fill="none" r="65.8" stroke="#cb0000" stroke-width="10"/><path d="m0 96.9v-38.2h7.5v31h15.9v7.2z"/><path d="m46.1 96.9v-16.1l-14.5-22.1h9.2l9.1 14.4 9-14.4h9.2l-14.5 22.1v16.1z"/><path d="m276.3 98.1-9.3-13.9-9.4 13.8h-9.3l13.9-19.9-13-18.2h9.7l8.2 12.1 8.5-12.1h9.3l-13 18.2 13.9 20z"/><path d="m329.3 98-3.8-9h-14.8l-3.8 9h-8.4l16.6-38.2h6l16.6 38.2zm-6.8-16.1-4.4-10.7-4.4 10.7z"/></svg>