<svg xmlns="http://www.w3.org/2000/svg" viewBox="0 0 330.67 135.5"><defs><style>.cls-1{fill:none;stroke:#cb0000;stroke-width:4.8px;}.cls-2{fill:#fff;}</style></defs><title>Logo - White</title><g id="Layer_2" data-name="Layer 2"><g id="Layer_1-2" data-name="Layer 1"><circle class="cls-1" cx="156.68" cy="67.75" r="65.35"/><path class="cls-2" d="M3.45,88.57H19.28v3.17H0v-34H3.45Z"/><path class="cls-2" d="M49.31,91.73H45.85V77.1L33.14,57.77h4.32l10.12,16,10.12-16H62L49.31,77.1Z"/><path class="cls-2" d="M263.52,72.5,273,58.93h4.32L265.82,75l12.47,17.84h-4.56l-10.36-15.4L253,92.88h-4.32L261.07,75,249.61,58.93h4.65Z"/><path class="cls-2" d="M301.79,92.88h-4l14.77-34h3.36l14.77,34h-4L322.9,84H305.54Zm5-12.09h14.73L314.21,63Z"/></g></g></svg>