<?xml version="1.0" standalone="no"?>
<!DOCTYPE svg PUBLIC "-//W3C//DTD SVG 20010904//EN"
 "http://www.w3.org/TR/2001/REC-SVG-20010904/DTD/svg10.dtd">
<svg version="1.0" xmlns="http://www.w3.org/2000/svg"
 width="16.000000pt" height="16.000000pt" viewBox="0 0 16.000000 16.000000"
 preserveAspectRatio="xMidYMid meet">
<metadata>
Created by potrace 1.11, written by Peter Selinger 2001-2013
</metadata>
<g transform="translate(0.000000,16.000000) scale(0.002286,-0.002286)"
fill="#000000" stroke="none">
<path d="M3295 6294 c-546 -46 -1047 -235 -1484 -561 -153 -114 -430 -391
-544 -544 -296 -397 -469 -819 -543 -1324 -25 -168 -25 -562 0 -730 74 -505
247 -927 543 -1324 114 -153 391 -430 544 -544 397 -296 819 -469 1324 -543
168 -25 562 -25 730 0 505 74 927 247 1324 543 153 114 430 391 544 544 296
397 469 819 543 1324 13 89 18 183 18 365 0 182 -5 276 -18 365 -74 505 -247
927 -543 1324 -114 153 -391 430 -544 544 -390 291 -806 464 -1294 538 -127
19 -480 33 -600 23z m425 -285 c819 -74 1534 -524 1951 -1231 464 -784 464
-1772 0 -2556 -220 -372 -521 -673 -893 -893 -784 -464 -1772 -464 -2556 0
-575 340 -991 888 -1157 1524 -287 1103 179 2240 1157 2818 448 266 979 386
1498 338z"/>
</g>
</svg>
