<?xml version="1.0" encoding="utf-8"?>
<!-- Generator: Adobe Illustrator 21.1.0, SVG Export Plug-In . SVG Version: 6.00 Build 0)  -->
<svg version="1.1" id="Layer_1" xmlns="http://www.w3.org/2000/svg" xmlns:xlink="http://www.w3.org/1999/xlink" x="0px" y="0px"
	 viewBox="0 0 32 32" style="enable-background:new 0 0 32 32;" xml:space="preserve">
<style type="text/css">
	.st0{fill:#AFAFAF;}
	.st1{fill:#727272;}
	.st2{fill:#CB0000;}
</style>
<g>
	<path class="st0" d="M3,31.8C3,31.9,3.1,32,3.2,32h25.5c0.1,0,0.2-0.1,0.2-0.2V28H3V31.8z"/>
	<polygon class="st1" points="22,0 22,7 29,7 	"/>
	<path class="st2" d="M15.8,24.5c0.4-0.2,0.7-0.5,0.9-1c0.2-0.4,0.4-0.9,0.4-1.5c0-0.6-0.1-1.1-0.3-1.5c-0.2-0.4-0.5-0.8-0.9-1
		c-0.2-0.1-0.5-0.2-0.9-0.3c-0.3-0.1-0.7-0.1-1.2-0.1h-2.1l0,0V25h2.1c0.5,0,0.8,0,1.2-0.1C15.2,24.8,15.5,24.7,15.8,24.5z
		 M14.2,23.9c-0.2,0-0.4,0-0.8,0h-0.4v-3.6h0.4c0.3,0,0.6,0,0.7,0c0.2,0,0.3,0.1,0.5,0.2c0.3,0.2,0.5,0.4,0.7,0.6
		c0.1,0.3,0.2,0.6,0.2,1c0,0.4-0.1,0.7-0.2,1c-0.1,0.3-0.3,0.5-0.6,0.6C14.6,23.8,14.4,23.8,14.2,23.9z"/>
	<path class="st0" d="M21,7.8V0H3.2C3.1,0,3,0.1,3,0.2V16h26V8h-7.8C21.1,8,21,7.9,21,7.8z"/>
	<polygon class="st2" points="22.4,20.3 22.4,19.2 18.2,19.2 18.2,25 19.8,25 19.8,22.5 22.2,22.5 22.2,21.4 19.8,21.4 19.8,20.3 	
		"/>
	<path class="st2" d="M8.2,23.1c0.4,0,0.8,0,1.1-0.2c0.3-0.1,0.5-0.3,0.8-0.5c0.2-0.2,0.3-0.4,0.4-0.6c0.1-0.2,0.1-0.5,0.1-0.8
		c0-0.3-0.1-0.6-0.2-0.9c-0.1-0.2-0.3-0.4-0.5-0.6c-0.2-0.1-0.4-0.2-0.7-0.3c-0.3-0.1-0.6-0.1-0.9-0.1H5.8V25h1.5v-1.9H8.2z
		 M7.2,20.3L7.2,20.3l0.2,0c0.2,0,0.4,0,0.6,0c0.1,0,0.3,0,0.5,0.1c0.1,0,0.2,0.1,0.3,0.2C9,20.7,9,20.9,9,21.1c0,0.2,0,0.3-0.1,0.4
		c0,0.1-0.1,0.2-0.2,0.3c-0.1,0.1-0.2,0.2-0.4,0.2c-0.2,0-0.4,0-0.6,0H7.2V20.3z"/>
</g>
</svg>
